<svg id="Layer_1" data-name="Layer 1" xmlns="http://www.w3.org/2000/svg" viewBox="0 0 1393 342.37"><defs><style>.cls-1{fill:#08a6df;}.cls-2{fill:#f47f22;}.cls-3{fill:#42924d;}</style></defs><path class="cls-1" d="M193,342.37l-3.16-1.57c-34.14-17-64.86-40.92-91.31-71.1C76.85,245,57.85,215.83,42.05,183.11A505.72,505.72,0,0,1,.94,55.58L0,50.28,4.85,48C66.22,18.41,129.44,2.28,192.75,0h.5C256.56,2.28,319.78,18.41,381.15,48L386,50.28l-.94,5.3A505.72,505.72,0,0,1,344,183.11c-15.8,32.72-34.8,61.86-56.48,86.59-26.45,30.18-57.17,54.1-91.31,71.1ZM15.88,58.4C26,111.15,65.46,260.88,193,326.51,320.54,260.88,360,111.15,370.12,58.4c-58-27.17-117.54-42-177.12-44.22C133.42,16.36,73.86,31.23,15.88,58.4Z"/><path class="cls-2" d="M192.94,124c-3.54,2.67-6.95,5.18-10.29,7.78Q164.8,145.65,147,159.62c-11.47,9-23,18-34.3,27.11-3.19,2.58-6.69,2.18-9.93,1.48A13.29,13.29,0,0,1,91.83,175c.09-15.63.2-31.26,0-46.89-.1-6.91,6.09-13.39,13.21-13.3,15.24.2,30.49,0,45.73,0h5c.19-2,.48-3.61.49-5.21,0-15.25.06-30.49,0-45.73,0-6,2.56-10.27,8-12.5a20.59,20.59,0,0,1,7.57-1.3c14.2-.12,28.41-.09,42.62,0a21.32,21.32,0,0,1,6.12.82A12,12,0,0,1,229,59.71a24.2,24.2,0,0,1,.65,6.13c0,14.6,0,29.19,0,43.79,0,1.6.3,3.2.51,5.24h4.63c14.59,0,29.19,0,43.79,0a27,27,0,0,1,5.77.39c5.72,1.31,9.67,6.55,9.72,12.89.07,9.82,0,19.63,0,29.45,0,5.42-.14,10.85,0,16.27.27,9.05-6.61,14.72-14.48,14.7A11,11,0,0,1,272.4,186c-12.92-10.27-26-20.34-39-30.52q-18-14.07-35.91-28.22C196.08,126.12,194.59,125.13,192.94,124Z"/><path class="cls-3" d="M193,138.4l63.51,49.69c-.05.24-.11.48-.16.72-2.76,0-5.53.11-8.29.13s-5.68,0-8.52,0h-8.87a47.65,47.65,0,0,0-.49,4.8c0,14.33,0,28.67,0,43,0,1.29-.07,2.58,0,3.87.13,6.55-6.66,12.62-12.79,12.56q-24.21-.24-48.44,0c-6.29.06-13.2-5.56-13.21-13.91q0-9.68,0-19.37c0-8.78,0-17.57,0-26.35,0-1.37-.14-2.75-.25-4.62H129.68l-.23-.84Z"/><path class="cls-1" d="M265.86,39v-7.3c32.66,6,64.06,15.26,93.52,30.54a365.06,365.06,0,0,1-9.59,46.05,44.17,44.17,0,0,1-7.38.14c1.72-7,3.56-13.91,5.07-20.85s3.14-13.91,3.81-21.22a271.59,271.59,0,0,0-41.85-16.65A398.18,398.18,0,0,0,265.86,39Z"/><path class="cls-1" d="M120,31.71c.07.62.14,1,.15,1.37,0,1.87,0,3.75,0,5.82-2.4.54-4.67,1.11-7,1.55q-14,2.7-27.7,6.62A271.42,271.42,0,0,0,55.13,57.33C49.19,59.81,43.29,62.4,37.4,65a30.1,30.1,0,0,0-2.8,1.59c2,14.12,5.33,27.89,8.94,41.77H36.18a363.49,363.49,0,0,1-9.56-46A278.67,278.67,0,0,1,72,43.57,389.39,389.39,0,0,1,120,31.71Z"/><path class="cls-2" d="M244.35,279.25a262.43,262.43,0,0,1-51.51,35.34,294.31,294.31,0,0,1-52.46-35.33c3.93,0,7.36-.05,10.79,0a3.62,3.62,0,0,1,1.84.86c4.25,3.11,8.41,6.34,12.71,9.37a280.06,280.06,0,0,0,25.33,15.9,3.2,3.2,0,0,0,3.51,0,282.66,282.66,0,0,0,35.92-23.77,9.75,9.75,0,0,1,7.27-2.46C239.93,279.4,242.15,279.25,244.35,279.25Z"/><path class="cls-3" d="M201.33,287.31a7,7,0,1,1-14.09-.16,6.93,6.93,0,0,1,7.16-6.84C198.46,280.51,201.35,283.27,201.33,287.31Z"/><path class="cls-3" d="M411,52.62h39.78l39.24,76,38.88-76h39.78L490,199.14Z"/><path class="cls-3" d="M617.83,52.62V193.74H581.29V52.62Z"/><path class="cls-3" d="M747.25,193.74l-38-46.8H682.63v46.8H646.09V52.62h91.26a47.58,47.58,0,0,1,34.2,13.86c9.54,9.18,14.4,20.34,14.4,33.3a44.53,44.53,0,0,1-9.54,28.08,45.83,45.83,0,0,1-25,16.38l40.32,49.5Zm-64.62-79.38h49.14c11.52,0,17.46-6.48,17.46-15.3,0-9.18-5.76-15.48-17.46-15.48H682.63Z"/><path class="cls-3" d="M852.15,193.74V86.46H798.69V52.62h143.1V86.46H888.51V193.74Z"/><path class="cls-3" d="M1028.32,196.08c-19.8,0-36.72-7-50.76-20.88a68.91,68.91,0,0,1-20.88-50.4V52.62h36.54V124.8a36.42,36.42,0,0,0,10.26,26.1,33.76,33.76,0,0,0,49.5,0,35.85,35.85,0,0,0,10.44-26.1V52.62h36.36V124.8c0,19.62-7,36.54-21.06,50.4A68.91,68.91,0,0,1,1028.32,196.08Z"/><path class="cls-3" d="M1152.84,171.24l-12.24,22.5h-40.14L1178,46.14l80.28,147.6h-40.5L1205,171.24Zm25.74-59.76-16.2,34.74,32.4-.18Z"/><path class="cls-3" d="M1270.94,193.74V52.62h36.54V159.9h85.13v33.84Z"/><path class="cls-3" d="M441.29,294.28,411.42,224h19L444.2,259.2l20.68-36.68,20.95,36.59L499.53,224h18.91l-29.52,70.26-23.86-41Z"/><path class="cls-3" d="M591.61,277.05v16.26h-66.1V224h66.1v16.35H543.45v10.7h32.43v15.2H543.45v10.78Z"/><path class="cls-3" d="M603,293.31V224h17.94V276.7h41.8v16.61Z"/><path class="cls-3" d="M670,293.31V224H687.9V276.7h41.8v16.61Z"/><path class="cls-3" d="M754.91,293.31H737V221.2l52.49,41.27V224h17.85v72.21l-52.4-40.92Z"/><path class="cls-3" d="M887.49,277.05v16.26h-66.1V224h66.1v16.35H839.33v10.7h32.43v15.2H839.33v10.78Z"/><path class="cls-3" d="M929.78,294.46c-9.63,0-19.79-2.56-27.31-7.87-3.8-2.65-6.09-5.74-7.07-9.19l13.53-8.22c5,5.93,12,8.84,21.21,8.84,5.57,0,10.07-.79,13.43-2.3,1.86-.88,2.74-2.12,2.74-3.8a3.39,3.39,0,0,0-2.39-3.53c-2.38-1-6.89-1.77-13.52-2.56-10.6-1.24-17.41-2.48-20.32-3.72-8.58-3.71-12.64-9.36-12.2-16.88,0-8,4.15-14,12.46-18.2,5.57-2.74,12.73-4.07,21.65-4.07,16.53,0,27.31,5.84,30.76,16.71l-15.2,8c-2.74-6.63-7.69-9.72-17.15-9.72a26.66,26.66,0,0,0-9.81,1.94c-3.27,1.24-5,2.83-5,4.69-.09,3.44,2.73,4.95,9.36,6l6.37.79c1.68.09,3.62.36,5.65.62,7.16,1,12,1.94,14.67,3.09,8.58,3.45,12.73,9.19,12.29,17.24v.62c-.36,9.63-7.69,16.52-17.59,19.44A60.11,60.11,0,0,1,929.78,294.46Z"/><path class="cls-3" d="M1005.8,294.46c-9.63,0-19.8-2.56-27.31-7.87-3.8-2.65-6.1-5.74-7.07-9.19l13.52-8.22c4.95,5.93,12,8.84,21.21,8.84,5.57,0,10.08-.79,13.44-2.3,1.85-.88,2.74-2.12,2.74-3.8a3.4,3.4,0,0,0-2.39-3.53c-2.39-1-6.89-1.77-13.52-2.56-10.61-1.24-17.41-2.48-20.33-3.72-8.57-3.71-12.64-9.36-12.2-16.88,0-8,4.16-14,12.47-18.2,5.56-2.74,12.72-4.07,21.65-4.07,16.52,0,27.31,5.84,30.75,16.71l-15.2,8c-2.74-6.63-7.69-9.72-17.14-9.72a26.66,26.66,0,0,0-9.81,1.94c-3.27,1.24-5,2.83-5,4.69-.09,3.44,2.74,4.95,9.37,6l6.36.79c1.68.09,3.62.36,5.66.62,7.16,1,12,1.94,14.67,3.09,8.57,3.45,12.72,9.19,12.28,17.24v.62c-.35,9.63-7.69,16.52-17.58,19.44A60.11,60.11,0,0,1,1005.8,294.46Z"/><path class="cls-3" d="M1102.05,283.68c-7.52-7-11.32-15.38-11.32-25s3.8-17.94,11.4-25a41.08,41.08,0,0,1,46-5.66,37,37,0,0,1,14,12.46l-14.41,10.43c-3.62-6.63-10.78-10.52-18.64-10.52a20.79,20.79,0,0,0-14.5,5.39,16.76,16.76,0,0,0-6,12.91,17.06,17.06,0,0,0,6,13,22.06,22.06,0,0,0,33.41-5.66l14.58,10a34.88,34.88,0,0,1-14.05,13.17,41.41,41.41,0,0,1-46.57-5.48Z"/><path class="cls-3" d="M1188.61,282.26l-6,11.05h-19.7L1201,220.84l39.41,72.47h-19.88l-6.28-11.05Zm12.64-29.34-8,17.06,15.9-.09Z"/><path class="cls-3" d="M1296.27,293.31l-18.65-23h-13.08v23H1246.6V224h44.81a23.36,23.36,0,0,1,16.79,6.81,22.52,22.52,0,0,1,2.38,30.14,22.53,22.53,0,0,1-12.28,8l19.8,24.3Zm-31.73-39h24.13c5.65,0,8.57-3.18,8.57-7.52,0-4.5-2.83-7.6-8.57-7.6h-24.13Z"/><path class="cls-3" d="M1393,277.05v16.26h-66.11V224H1393v16.35h-48.17v10.7h32.44v15.2h-32.44v10.78Z"/></svg>